<?xml version="1.0" standalone="no"?>
<!DOCTYPE svg PUBLIC "-//W3C//DTD SVG 20010904//EN"
 "http://www.w3.org/TR/2001/REC-SVG-20010904/DTD/svg10.dtd">
<svg version="1.0" xmlns="http://www.w3.org/2000/svg"
 width="232.000000pt" height="186.000000pt" viewBox="0 0 232.000000 186.000000"
 preserveAspectRatio="xMidYMid meet">
<metadata>
Created by potrace 1.16, written by Peter Selinger 2001-2019
</metadata>
<g transform="translate(0.000000,186.000000) scale(0.100000,-0.100000)"
fill="#000000" stroke="none">
<path d="M1386 1818 c-33 -37 -35 -43 -22 -56 12 -13 18 -13 31 -2 8 7 40 13
70 14 53 1 55 0 55 -26 0 -15 8 -31 18 -37 14 -8 15 -13 5 -30 -24 -39 -7 -43
31 -7 30 27 34 68 12 120 -20 47 -51 66 -112 66 -48 0 -54 -3 -88 -42z"/>
<path d="M1405 1591 c-3 -10 -20 -24 -38 -31 -18 -6 -42 -16 -54 -20 -12 -5
-54 -58 -94 -117 -50 -75 -103 -137 -172 -203 l-100 -95 33 -33 c27 -28 35
-31 48 -20 105 83 204 171 236 210 22 26 44 48 49 48 13 0 2 -294 -14 -379 -9
-50 -9 -101 0 -230 12 -159 44 -476 57 -553 l6 -38 53 0 53 0 6 53 c3 28 8
163 12 299 4 137 10 248 13 248 3 0 46 -132 95 -294 l89 -294 31 9 c17 5 43 9
58 9 16 0 28 6 28 13 0 6 -24 174 -54 372 -30 198 -52 363 -49 368 2 4 24 7
47 7 l44 0 -34 163 c-80 379 -94 431 -115 450 -12 9 -30 17 -40 17 -10 0 -28
14 -41 30 -20 28 -26 30 -84 30 -53 0 -64 -3 -69 -19z"/>
<path d="M482 1490 c-84 -51 -80 -179 7 -228 63 -36 120 -26 170 29 28 30 29
31 55 14 15 -10 26 -13 26 -6 0 6 -11 18 -25 27 -19 12 -25 25 -25 53 0 103
-118 166 -208 111z"/>
<path d="M96 1299 c-95 -27 -127 -151 -57 -223 17 -17 31 -40 31 -49 0 -9 5
-17 10 -17 6 0 10 6 10 13 0 9 14 14 44 14 52 0 89 21 116 66 62 102 -38 229
-154 196z"/>
<path d="M82 827 c1 -12 -8 -38 -22 -57 -30 -42 -32 -112 -5 -153 51 -78 182
-76 229 3 20 35 21 102 0 141 -21 42 -89 72 -143 63 -34 -5 -41 -4 -41 10 0 9
-5 16 -11 16 -6 0 -9 -10 -7 -23z m142 -83 c21 -20 21 -88 0 -108 -9 -9 -32
-16 -54 -16 -22 0 -45 7 -54 16 -21 20 -21 88 0 108 20 21 88 21 108 0z"/>
<path d="M529 657 c-22 -15 -39 -38 -49 -65 -13 -38 -18 -42 -48 -42 -20 0
-31 -4 -27 -10 3 -5 19 -10 34 -10 22 0 30 -7 44 -38 19 -43 78 -82 124 -82
73 0 136 70 131 146 -2 35 3 46 28 67 20 19 24 26 13 27 -9 0 -24 -9 -34 -20
l-18 -20 -14 20 c-37 52 -127 66 -184 27z"/>
<path d="M2037 483 c-4 -3 -7 -22 -7 -40 0 -25 8 -42 29 -61 60 -57 98 -173
86 -268 -3 -30 -9 -54 -13 -54 -4 0 -14 15 -22 33 -11 23 -22 32 -40 32 -21 0
-27 -7 -34 -37 -12 -49 11 -78 61 -78 29 0 37 5 46 30 10 25 17 29 56 32 41 3
46 6 68 48 13 24 21 50 19 57 -3 7 -1 15 4 18 16 10 11 35 -5 35 -21 0 -75
-28 -102 -53 l-23 -20 -2 41 c-1 23 -2 50 -2 60 -1 10 8 18 22 20 35 5 52 40
49 102 -3 63 -11 80 -36 80 -23 0 -71 -68 -71 -100 l0 -24 -16 22 c-13 20 -14
28 -4 53 10 24 10 35 0 55 -13 23 -48 33 -63 17z"/>
</g>
</svg>
